{
  "accessors": [
    {
      "bufferView": 2,
      "componentType": 5126,
      "count": 11956,
      "max": [
        1.144690990447998,
        1.25,
        0.36448198556900024
      ],
      "min": [
        -1.144690990447998,
        -1.25,
        -0.36448198556900024
      ],
      "type": "VEC3"
    },
    {
      "bufferView": 2,
      "byteOffset": 143472,
      "componentType": 5126,
      "count": 11956,
      "max": [
        1.0,
        1.0,
        1.0
      ],
      "min": [
        -1.0,
        -1.0,
        -1.0
      ],
      "type": "VEC3"
    },
    {
      "bufferView": 1,
      "componentType": 5126,
      "count": 11956,
      "max": [
        0.9987130165100098,
        0.9989280104637146
      ],
      "min": [
        0.0014880000380799174,
        -0.9974070191383362
      ],
      "type": "VEC2"
    },
    {
      "bufferView": 0,
      "componentType": 5125,
      "count": 39582,
      "type": "SCALAR"
    },
    {
      "bufferView": 2,
      "byteOffset": 286944,
      "componentType": 5126,
      "count": 4624,
      "max": [
        1.107782006263733,
        0.48228099942207336,
        -0.05031000077724457
      ],
      "min": [
        -1.1370220184326172,
        -0.8032799959182739,
        -0.36448198556900024
      ],
      "type": "VEC3"
    },
    {
      "bufferView": 2,
      "byteOffset": 342432,
      "componentType": 5126,
      "count": 4624,
      "max": [
        1.0,
        1.0,
        0.9999712705612183
      ],
      "min": [
        -1.0,
        -1.0,
        -0.9999978542327881
      ],
      "type": "VEC3"
    },
    {
      "bufferView": 1,
      "byteOffset": 95648,
      "componentType": 5126,
      "count": 4624,
      "max": [
        0.9987130165100098,
        0.9976770281791687
      ],
      "min": [
        0.0013899999903514981,
        -0.9974070191383362
      ],
      "type": "VEC2"
    },
    {
      "bufferView": 0,
      "byteOffset": 158328,
      "componentType": 5125,
      "count": 15879,
      "type": "SCALAR"
    }
  ],
  "asset": {
    "extras": {
      "author": "LuizZed36 (https://sketchfab.com/LuizZed36)",
      "license": "CC-BY-4.0 (http://creativecommons.org/licenses/by/4.0/)",
      "source": "https://sketchfab.com/3d-models/airbus-a380-malaysia-airlines-02ecd9fd261e4c4bb7afc3c289de83c9",
      "title": "Airbus A380 Malaysia Airlines"
    },
    "generator": "Sketchfab-16.29.0",
    "version": "2.0"
  },
  "bufferViews": [
    {
      "buffer": 0,
      "byteLength": 221844,
      "name": "floatBufferViews",
      "target": 34963
    },
    {
      "buffer": 0,
      "byteLength": 132640,
      "byteOffset": 221844,
      "byteStride": 8,
      "name": "floatBufferViews",
      "target": 34962
    },
    {
      "buffer": 0,
      "byteLength": 397920,
      "byteOffset": 354484,
      "byteStride": 12,
      "name": "floatBufferViews",
      "target": 34962
    }
  ],
  "buffers": [
    {
      "byteLength": 752404,
      "uri": "scene.bin"
    }
  ],
  "images": [
    {
      "uri": "textures/TexMap_baseColor.jpeg"
    }
  ],
  "materials": [
    {
      "doubleSided": true,
      "name": "TexMap",
      "pbrMetallicRoughness": {
        "baseColorTexture": {
          "index": 0
        },
        "metallicFactor": 0.2425570878887019,
        "roughnessFactor": 0.2081430140814985
      }
    }
  ],
  "meshes": [
    {
      "name": "Object_0",
      "primitives": [
        {
          "attributes": {
            "NORMAL": 1,
            "POSITION": 0,
            "TEXCOORD_0": 2
          },
          "indices": 3,
          "material": 0,
          "mode": 4
        }
      ]
    },
    {
      "name": "Object_1",
      "primitives": [
        {
          "attributes": {
            "NORMAL": 5,
            "POSITION": 4,
            "TEXCOORD_0": 6
          },
          "indices": 7,
          "material": 0,
          "mode": 4
        }
      ]
    }
  ],
  "nodes": [
    {
      "children": [
        1
      ],
      "matrix": [
        1.0,
        0.0,
        0.0,
        0.0,
        0.0,
        2.220446049250313e-16,
        -1.0,
        0.0,
        0.0,
        1.0,
        2.220446049250313e-16,
        0.0,
        0.0,
        0.0,
        0.0,
        1.0
      ],
      "name": "Sketchfab_model"
    },
    {
      "children": [
        2,
        3
      ],
      "name": "9K2WJRE76FKDQ67I3BH668IKC.obj.cleaner.materialmerger.gles"
    },
    {
      "mesh": 0,
      "name": "Object_2"
    },
    {
      "mesh": 1,
      "name": "Object_3"
    }
  ],
  "samplers": [
    {
      "magFilter": 9729,
      "minFilter": 9987,
      "wrapS": 10497,
      "wrapT": 10497
    }
  ],
  "scene": 0,
  "scenes": [
    {
      "name": "Sketchfab_Scene",
      "nodes": [
        0
      ]
    }
  ],
  "textures": [
    {
      "sampler": 0,
      "source": 0
    }
  ]
}
